<?xml version="1.0" encoding="UTF-8"?>
<svg xmlns="http://www.w3.org/2000/svg" xmlns:xlink="http://www.w3.org/1999/xlink" width="20pt" height="20pt" viewBox="0 0 20 20" version="1.1">
<g id="surface1">
<path style=" stroke:none;fill-rule:nonzero;fill:rgb(102,102,102);fill-opacity:1;" d="M 17.070312 12.929688 C 15.980469 11.839844 14.683594 11.035156 13.269531 10.546875 C 14.785156 9.503906 15.78125 7.753906 15.78125 5.78125 C 15.78125 2.59375 13.1875 0 10 0 C 6.8125 0 4.21875 2.59375 4.21875 5.78125 C 4.21875 7.753906 5.214844 9.503906 6.730469 10.546875 C 5.316406 11.035156 4.019531 11.839844 2.929688 12.929688 C 1.039062 14.816406 0 17.328125 0 20 L 1.5625 20 C 1.5625 15.347656 5.347656 11.5625 10 11.5625 C 14.652344 11.5625 18.4375 15.347656 18.4375 20 L 20 20 C 20 17.328125 18.960938 14.816406 17.070312 12.929688 Z M 10 10 C 7.671875 10 5.78125 8.109375 5.78125 5.78125 C 5.78125 3.453125 7.671875 1.5625 10 1.5625 C 12.328125 1.5625 14.21875 3.453125 14.21875 5.78125 C 14.21875 8.109375 12.328125 10 10 10 Z M 10 10 "/>
</g>
</svg>
